<svg xmlns="http://www.w3.org/2000/svg" width="197.713" height="76.694" viewBox="0 0 197.713 76.694"><g transform="translate(5398.768 1608.911)"><path d="M35.235,0H30.56V-18.2H9.908V0H5.232V-39.911H9.908V-22.4H30.56V-39.911h4.676Zm57.3-.278a8.8,8.8,0,0,1-4.258.891q-7.487,0-7.487-8.35V-24.6h-4.9v-3.9h4.9v-6.958l4.564-1.475V-28.5h7.181v3.9H85.355V-8.544a6.657,6.657,0,0,0,.974,4.091,3.887,3.887,0,0,0,3.229,1.225,4.8,4.8,0,0,0,2.978-.946Zm4.37-.751v-4.9a13.508,13.508,0,0,0,8.21,2.755q6.012,0,6.012-4.008a3.477,3.477,0,0,0-.515-1.934,5.132,5.132,0,0,0-1.392-1.406,10.712,10.712,0,0,0-2.06-1.1q-1.183-.487-2.547-1.016a32.8,32.8,0,0,1-3.326-1.517A10.048,10.048,0,0,1,98.9-15.878a6.421,6.421,0,0,1-1.447-2.185,7.729,7.729,0,0,1-.487-2.867,6.81,6.81,0,0,1,.918-3.549,8.144,8.144,0,0,1,2.449-2.588,11.421,11.421,0,0,1,3.493-1.573,15.494,15.494,0,0,1,4.05-.529,16.351,16.351,0,0,1,6.624,1.28v4.62a12.909,12.909,0,0,0-7.236-2.06,8.458,8.458,0,0,0-2.31.292,5.655,5.655,0,0,0-1.767.821,3.793,3.793,0,0,0-1.141,1.266,3.336,3.336,0,0,0-.4,1.628,3.9,3.9,0,0,0,.4,1.865,4.105,4.105,0,0,0,1.183,1.336,9.041,9.041,0,0,0,1.893,1.058q1.113.473,2.533,1.03a35.249,35.249,0,0,1,3.4,1.489,11.646,11.646,0,0,1,2.561,1.726,6.743,6.743,0,0,1,1.628,2.213,7.136,7.136,0,0,1,.571,2.978,7.022,7.022,0,0,1-.932,3.674,7.991,7.991,0,0,1-2.491,2.588A11.409,11.409,0,0,1,108.79.167a17.727,17.727,0,0,1-4.258.5A16.17,16.17,0,0,1,96.905-1.03Zm30.587-3.089h-.111V13.109h-4.564V-28.5h4.564v5.01h.111a10.793,10.793,0,0,1,9.853-5.678,10.437,10.437,0,0,1,8.6,3.827q3.089,3.827,3.089,10.256,0,7.153-3.479,11.453a11.583,11.583,0,0,1-9.519,4.3A9.535,9.535,0,0,1,127.493-4.119Zm-.111-11.495v3.98a8.474,8.474,0,0,0,2.3,6,7.625,7.625,0,0,0,5.831,2.463,7.64,7.64,0,0,0,6.5-3.173q2.352-3.173,2.352-8.823a11.491,11.491,0,0,0-2.2-7.459,7.276,7.276,0,0,0-5.956-2.7,8.087,8.087,0,0,0-6.4,2.769A10.168,10.168,0,0,0,127.381-15.614ZM168.239.668A13.22,13.22,0,0,1,158.15-3.326q-3.771-3.994-3.771-10.59,0-7.181,3.924-11.216t10.6-4.036q6.374,0,9.95,3.924t3.576,10.882q0,6.819-3.855,10.924A13.507,13.507,0,0,1,168.239.668Zm.334-26a8.682,8.682,0,0,0-6.958,2.992q-2.561,2.992-2.561,8.252,0,5.065,2.588,7.988a8.8,8.8,0,0,0,6.93,2.922,8.344,8.344,0,0,0,6.8-2.867q2.38-2.867,2.38-8.155,0-5.344-2.38-8.238A8.308,8.308,0,0,0,168.573-25.327ZM202.945-.278a8.8,8.8,0,0,1-4.258.891q-7.487,0-7.487-8.35V-24.6h-4.9v-3.9h4.9v-6.958l4.564-1.475V-28.5h7.181v3.9h-7.181V-8.544a6.657,6.657,0,0,0,.974,4.091,3.887,3.887,0,0,0,3.229,1.225,4.8,4.8,0,0,0,2.978-.946Z" transform="translate(-5404 -1569)" fill="#fff"/><g transform="translate(-5360.82 -1597.248)"><g transform="translate(0 0)"><path d="M54.86,104.816a14.352,14.352,0,1,1-14.352,14.352A14.352,14.352,0,0,1,54.86,104.816Zm0,1.566a12.786,12.786,0,1,1-12.786,12.786A12.786,12.786,0,0,1,54.86,106.382Z" transform="translate(-40.508 -104.816)" fill="#fff" fill-rule="evenodd"/><path d="M53.9,108.933a9.276,9.276,0,1,1-9.276,9.276A9.276,9.276,0,0,1,53.9,108.933Zm0,1.383a7.893,7.893,0,1,1-7.893,7.893A7.893,7.893,0,0,1,53.9,110.316Z" transform="translate(-39.55 -103.858)" fill="#fff" fill-rule="evenodd"/><path d="M52.988,112.859a4.436,4.436,0,1,1-4.436,4.436A4.436,4.436,0,0,1,52.988,112.859Zm0,1.109a3.327,3.327,0,1,1-3.327,3.327A3.327,3.327,0,0,1,52.988,113.968Z" transform="translate(-38.636 -102.944)" fill="#fff" fill-rule="evenodd"/><rect width="17.287" height="0.913" transform="translate(13.777 14.842) rotate(-52.801)" fill="#fff"/></g><g transform="translate(4.693 0)"><path d="M53.974,104.816a14.288,14.288,0,0,1,8.577,2.844L61.6,108.9a12.786,12.786,0,0,0-16.284.858l-1-1.209A14.3,14.3,0,0,1,53.974,104.816Z" transform="translate(-44.316 -104.816)" fill="#d5a00c" fill-rule="evenodd"/><path d="M53.362,108.933a9.234,9.234,0,0,1,5.49,1.8l-.841,1.1a7.892,7.892,0,0,0-10.184.752l-.884-1.07A9.245,9.245,0,0,1,53.362,108.933Z" transform="translate(-43.704 -103.858)" fill="#d5a00c" fill-rule="evenodd"/><path d="M52.777,112.859a4.415,4.415,0,0,1,2.545.8l-.675.881a3.327,3.327,0,0,0-4.47.676l-.718-.868A4.425,4.425,0,0,1,52.777,112.859Z" transform="translate(-43.118 -102.944)" fill="#d5a00c" fill-rule="evenodd"/></g></g><path d="M-80.779-1.785a.174.174,0,0,1,.128.053l.3.322a4.951,4.951,0,0,1-.72.634,4.481,4.481,0,0,1-.851.48,5,5,0,0,1-1.012.308A6.269,6.269,0,0,1-84.146.12a5.164,5.164,0,0,1-2.021-.386,4.489,4.489,0,0,1-1.575-1.1,5.03,5.03,0,0,1-1.024-1.714,6.468,6.468,0,0,1-.368-2.235,6.167,6.167,0,0,1,.379-2.205A5.019,5.019,0,0,1-87.69-9.229a4.748,4.748,0,0,1,1.643-1.11,5.494,5.494,0,0,1,2.111-.394,6,6,0,0,1,1.057.086,4.852,4.852,0,0,1,.9.247,4.211,4.211,0,0,1,.784.4,6.033,6.033,0,0,1,.72.555l-.232.337a.209.209,0,0,1-.187.09.318.318,0,0,1-.173-.079q-.1-.079-.266-.195t-.39-.255a3.162,3.162,0,0,0-.544-.255A4.608,4.608,0,0,0-83-9.994a5.031,5.031,0,0,0-.937-.079,4.622,4.622,0,0,0-1.778.334,3.983,3.983,0,0,0-1.395.952,4.351,4.351,0,0,0-.911,1.5,5.66,5.66,0,0,0-.326,1.976,5.846,5.846,0,0,0,.323,2.01,4.342,4.342,0,0,0,.893,1.5,3.87,3.87,0,0,0,1.346.938A4.3,4.3,0,0,0-84.1-.54a6.178,6.178,0,0,0,1.016-.075,3.985,3.985,0,0,0,.821-.225,3.7,3.7,0,0,0,.7-.368,5.273,5.273,0,0,0,.638-.51.519.519,0,0,1,.071-.049A.16.16,0,0,1-80.779-1.785Zm6.405-5.8a3.589,3.589,0,0,1,1.436.274,2.927,2.927,0,0,1,1.069.776,3.439,3.439,0,0,1,.664,1.211,5.149,5.149,0,0,1,.229,1.586,5.113,5.113,0,0,1-.229,1.583,3.443,3.443,0,0,1-.664,1.207,2.89,2.89,0,0,1-1.069.772A3.633,3.633,0,0,1-74.374.1a3.633,3.633,0,0,1-1.436-.27,2.924,2.924,0,0,1-1.072-.772,3.411,3.411,0,0,1-.668-1.207,5.113,5.113,0,0,1-.229-1.583,5.149,5.149,0,0,1,.229-1.586,3.406,3.406,0,0,1,.668-1.211,2.962,2.962,0,0,1,1.072-.776A3.589,3.589,0,0,1-74.374-7.583Zm0,7.118a2.774,2.774,0,0,0,1.166-.229,2.208,2.208,0,0,0,.833-.656,2.894,2.894,0,0,0,.5-1.031,5.136,5.136,0,0,0,.165-1.354,5.147,5.147,0,0,0-.165-1.35,2.931,2.931,0,0,0-.5-1.039,2.227,2.227,0,0,0-.833-.664,2.735,2.735,0,0,0-1.166-.233,2.735,2.735,0,0,0-1.166.233,2.227,2.227,0,0,0-.833.664,2.979,2.979,0,0,0-.5,1.039,5.039,5.039,0,0,0-.169,1.35,5.028,5.028,0,0,0,.169,1.354,2.942,2.942,0,0,0,.5,1.031,2.208,2.208,0,0,0,.833.656A2.774,2.774,0,0,0-74.374-.465ZM-68.021,0V-7.463h.39a.2.2,0,0,1,.225.188l.067,1.125A4.187,4.187,0,0,1-66.15-7.189a2.957,2.957,0,0,1,1.511-.394,2.8,2.8,0,0,1,1.084.195,1.99,1.99,0,0,1,.776.563,2.49,2.49,0,0,1,.465.885,4.015,4.015,0,0,1,.158,1.17V0h-.713V-4.77a2.556,2.556,0,0,0-.48-1.646,1.774,1.774,0,0,0-1.47-.6,2.6,2.6,0,0,0-1.365.379A3.965,3.965,0,0,0-67.309-5.6V0Zm9.2,0V-7.463h.39a.2.2,0,0,1,.225.188l.067,1.125a4.187,4.187,0,0,1,1.189-1.039,2.957,2.957,0,0,1,1.511-.394,2.8,2.8,0,0,1,1.084.195,1.99,1.99,0,0,1,.776.563,2.49,2.49,0,0,1,.465.885,4.015,4.015,0,0,1,.158,1.17V0h-.713V-4.77a2.556,2.556,0,0,0-.48-1.646,1.774,1.774,0,0,0-1.47-.6,2.6,2.6,0,0,0-1.365.379A3.965,3.965,0,0,0-58.114-5.6V0Zm12.007-7.583a3.074,3.074,0,0,1,1.166.218,2.621,2.621,0,0,1,.93.634,2.923,2.923,0,0,1,.615,1.024,4.064,4.064,0,0,1,.221,1.395.374.374,0,0,1-.049.225.186.186,0,0,1-.154.06h-5.385v.143a5.062,5.062,0,0,0,.195,1.477,3.027,3.027,0,0,0,.555,1.069,2.289,2.289,0,0,0,.87.649,2.878,2.878,0,0,0,1.14.218A3.412,3.412,0,0,0-45.739-.6a3.634,3.634,0,0,0,.694-.277,3.8,3.8,0,0,0,.446-.277.506.506,0,0,1,.24-.124.172.172,0,0,1,.15.075l.195.24a2.035,2.035,0,0,1-.476.42,3.4,3.4,0,0,1-.66.334,4.809,4.809,0,0,1-.78.221A4.291,4.291,0,0,1-46.766.1a3.549,3.549,0,0,1-1.4-.266,2.968,2.968,0,0,1-1.081-.776,3.555,3.555,0,0,1-.7-1.249,5.34,5.34,0,0,1-.246-1.691,4.612,4.612,0,0,1,.229-1.481,3.392,3.392,0,0,1,.66-1.17,3.008,3.008,0,0,1,1.057-.769A3.474,3.474,0,0,1-46.819-7.583Zm.011.533a2.8,2.8,0,0,0-1.033.18,2.261,2.261,0,0,0-.79.517,2.641,2.641,0,0,0-.539.81,3.691,3.691,0,0,0-.273,1.057h4.913A3.28,3.28,0,0,0-44.7-5.561a2.3,2.3,0,0,0-.464-.806,2.01,2.01,0,0,0-.719-.506A2.374,2.374,0,0,0-46.808-7.05Zm10.834.585a.775.775,0,0,1-.071.064.149.149,0,0,1-.094.026.391.391,0,0,1-.206-.1,2.784,2.784,0,0,0-.349-.221,2.941,2.941,0,0,0-.544-.221,2.694,2.694,0,0,0-.791-.1,2.716,2.716,0,0,0-1.144.229,2.272,2.272,0,0,0-.84.656A3.008,3.008,0,0,0-40.534-5.1a4.8,4.8,0,0,0-.18,1.365A4.824,4.824,0,0,0-40.53-2.34a2.971,2.971,0,0,0,.521,1.024,2.22,2.22,0,0,0,.818.634,2.551,2.551,0,0,0,1.065.218,2.759,2.759,0,0,0,.9-.127,2.945,2.945,0,0,0,.6-.277,2.705,2.705,0,0,0,.375-.278.388.388,0,0,1,.221-.127.172.172,0,0,1,.15.075l.195.24a2.182,2.182,0,0,1-.435.42,2.95,2.95,0,0,1-.592.338,3.633,3.633,0,0,1-.716.221A4.027,4.027,0,0,1-38.231.1a3.2,3.2,0,0,1-1.3-.259,2.821,2.821,0,0,1-1.012-.75,3.509,3.509,0,0,1-.66-1.2,5.137,5.137,0,0,1-.236-1.62,5.112,5.112,0,0,1,.225-1.56A3.51,3.51,0,0,1-40.56-6.51,2.945,2.945,0,0,1-39.5-7.3a3.473,3.473,0,0,1,1.436-.281,3.383,3.383,0,0,1,1.294.233,3.171,3.171,0,0,1,.986.63ZM-30.949.12A1.592,1.592,0,0,1-32.126-.3a1.768,1.768,0,0,1-.42-1.3V-6.7h-1.073a.2.2,0,0,1-.135-.045.159.159,0,0,1-.053-.128v-.278l1.275-.09.178-2.67a.207.207,0,0,1,.056-.12.168.168,0,0,1,.13-.053h.334v2.85h2.347V-6.7h-2.347v5.063a1.581,1.581,0,0,0,.079.529.987.987,0,0,0,.218.364.853.853,0,0,0,.326.21,1.187,1.187,0,0,0,.4.067,1.24,1.24,0,0,0,.465-.079A1.928,1.928,0,0,0-30-.716a2.164,2.164,0,0,0,.232-.173.256.256,0,0,1,.143-.079.163.163,0,0,1,.12.075l.195.315a2.08,2.08,0,0,1-.724.506A2.257,2.257,0,0,1-30.949.12Zm5.318-7.583V0h-.713V-7.463Zm.315-2.573a.569.569,0,0,1-.056.251.754.754,0,0,1-.146.206.679.679,0,0,1-.21.142.629.629,0,0,1-.255.052.629.629,0,0,1-.255-.052.679.679,0,0,1-.21-.142.692.692,0,0,1-.142-.206.6.6,0,0,1-.052-.251.656.656,0,0,1,.052-.259.667.667,0,0,1,.142-.214.679.679,0,0,1,.21-.143.629.629,0,0,1,.255-.052.629.629,0,0,1,.255.052.679.679,0,0,1,.21.143.721.721,0,0,1,.146.214A.618.618,0,0,1-25.316-10.035ZM-21.911,0V-7.463h.39a.2.2,0,0,1,.225.188l.068,1.125A4.187,4.187,0,0,1-20.04-7.189a2.957,2.957,0,0,1,1.511-.394,2.8,2.8,0,0,1,1.084.195,1.99,1.99,0,0,1,.776.563,2.49,2.49,0,0,1,.465.885,4.015,4.015,0,0,1,.157,1.17V0h-.712V-4.77a2.556,2.556,0,0,0-.48-1.646,1.774,1.774,0,0,0-1.47-.6,2.6,2.6,0,0,0-1.365.379A3.965,3.965,0,0,0-21.2-5.6V0Zm11.655-7.59a3.251,3.251,0,0,1,.9.12,2.711,2.711,0,0,1,.746.338h1.912v.247q0,.188-.21.2L-8.036-6.6a2.177,2.177,0,0,1,.322.641A2.514,2.514,0,0,1-7.6-5.2a2.384,2.384,0,0,1-.2.979,2.178,2.178,0,0,1-.544.75,2.484,2.484,0,0,1-.836.484,3.219,3.219,0,0,1-1.08.172,3.339,3.339,0,0,1-1.17-.195,1.55,1.55,0,0,0-.495.428.821.821,0,0,0-.18.48.586.586,0,0,0,.225.495,1.472,1.472,0,0,0,.6.251,5.324,5.324,0,0,0,.848.1l.967.049q.491.026.967.094a3.089,3.089,0,0,1,.848.236,1.5,1.5,0,0,1,.6.472,1.323,1.323,0,0,1,.225.806,1.843,1.843,0,0,1-.232.893,2.364,2.364,0,0,1-.671.758,3.543,3.543,0,0,1-1.061.529,4.575,4.575,0,0,1-1.4.2,5.282,5.282,0,0,1-1.38-.161,3.284,3.284,0,0,1-.994-.435,1.906,1.906,0,0,1-.6-.634,1.537,1.537,0,0,1-.2-.765,1.462,1.462,0,0,1,.39-1.02,2.515,2.515,0,0,1,1.072-.66,1.409,1.409,0,0,1-.6-.368.948.948,0,0,1-.221-.667,1,1,0,0,1,.06-.33,1.363,1.363,0,0,1,.18-.341,1.9,1.9,0,0,1,.289-.319,2.02,2.02,0,0,1,.394-.27,2.224,2.224,0,0,1-.829-.818,2.332,2.332,0,0,1-.3-1.193,2.424,2.424,0,0,1,.191-.979,2.173,2.173,0,0,1,.54-.754,2.438,2.438,0,0,1,.844-.487A3.31,3.31,0,0,1-10.256-7.59ZM-7.489.5a.838.838,0,0,0-.184-.566A1.215,1.215,0,0,0-8.164-.4a2.919,2.919,0,0,0-.709-.169q-.4-.049-.84-.071l-.881-.045a6.719,6.719,0,0,1-.825-.09,3.581,3.581,0,0,0-.529.259,1.923,1.923,0,0,0-.416.33,1.434,1.434,0,0,0-.27.405,1.186,1.186,0,0,0-.1.484,1.167,1.167,0,0,0,.169.611,1.49,1.49,0,0,0,.5.488,2.761,2.761,0,0,0,.8.326,4.438,4.438,0,0,0,1.087.12A4.214,4.214,0,0,0-9.12,2.123a2.956,2.956,0,0,0,.855-.36,1.835,1.835,0,0,0,.57-.555A1.283,1.283,0,0,0-7.489.5Zm-2.767-3.8A2.453,2.453,0,0,0-9.4-3.439a1.774,1.774,0,0,0,.63-.386,1.613,1.613,0,0,0,.386-.593,2.136,2.136,0,0,0,.131-.765,2.113,2.113,0,0,0-.135-.769,1.625,1.625,0,0,0-.394-.6,1.776,1.776,0,0,0-.63-.383,2.459,2.459,0,0,0-.844-.135,2.491,2.491,0,0,0-.847.135,1.77,1.77,0,0,0-.634.383,1.625,1.625,0,0,0-.394.6,2.113,2.113,0,0,0-.135.769,2.083,2.083,0,0,0,.135.765,1.631,1.631,0,0,0,.394.593,1.814,1.814,0,0,0,.634.386A2.43,2.43,0,0,0-10.256-3.3ZM5.4-9.323a.212.212,0,0,1-.2.127.434.434,0,0,1-.252-.139,3.285,3.285,0,0,0-.418-.307,3.307,3.307,0,0,0-.658-.311,2.893,2.893,0,0,0-.974-.142,2.9,2.9,0,0,0-1.02.165,2.129,2.129,0,0,0-.737.45A1.914,1.914,0,0,0,.7-8.82a2.05,2.05,0,0,0-.154.787,1.608,1.608,0,0,0,.229.893,2.063,2.063,0,0,0,.6.6,3.917,3.917,0,0,0,.852.416q.477.169.98.334t.98.364a3.535,3.535,0,0,1,.852.5,2.29,2.29,0,0,1,.6.739A2.34,2.34,0,0,1,5.876-3.1a3.438,3.438,0,0,1-.229,1.256A2.931,2.931,0,0,1,4.984-.818a3.116,3.116,0,0,1-1.065.686A3.864,3.864,0,0,1,2.479.12,4.069,4.069,0,0,1,.671-.251,4.259,4.259,0,0,1-.656-1.268l.21-.33a.264.264,0,0,1,.21-.113.3.3,0,0,1,.173.09L.192-1.4q.15.131.361.285a2.988,2.988,0,0,0,.488.285,3.456,3.456,0,0,0,.638.221,3.39,3.39,0,0,0,.819.09A3.112,3.112,0,0,0,3.624-.709a2.465,2.465,0,0,0,.837-.521,2.209,2.209,0,0,0,.522-.784,2.607,2.607,0,0,0,.18-.971,1.711,1.711,0,0,0-.229-.926,1.973,1.973,0,0,0-.6-.607,3.9,3.9,0,0,0-.852-.409Q3-5.092,2.5-5.25T1.517-5.6a3.38,3.38,0,0,1-.852-.5,2.283,2.283,0,0,1-.6-.758A2.51,2.51,0,0,1-.169-8a2.685,2.685,0,0,1,.2-1.028A2.556,2.556,0,0,1,.627-9.9a2.915,2.915,0,0,1,.965-.608A3.521,3.521,0,0,1,2.9-10.733a3.97,3.97,0,0,1,1.483.263,3.55,3.55,0,0,1,1.2.8ZM13.586,0a.257.257,0,0,1-.278-.21L13.2-1.163a7.829,7.829,0,0,1-.611.54,3.666,3.666,0,0,1-.634.405,3.122,3.122,0,0,1-.713.251,3.821,3.821,0,0,1-.84.086A2.475,2.475,0,0,1,9.664.008a1.832,1.832,0,0,1-.638-.345,1.693,1.693,0,0,1-.446-.6,2.063,2.063,0,0,1-.169-.874,1.551,1.551,0,0,1,.27-.878,2.218,2.218,0,0,1,.844-.7A5.567,5.567,0,0,1,11-3.87a12.849,12.849,0,0,1,2.171-.21v-.78a2.5,2.5,0,0,0-.446-1.594A1.593,1.593,0,0,0,11.4-7.013a2.5,2.5,0,0,0-.919.15,3.253,3.253,0,0,0-.641.33,4.043,4.043,0,0,0-.428.33.463.463,0,0,1-.278.15.242.242,0,0,1-.225-.135l-.128-.217a4.337,4.337,0,0,1,1.23-.885,3.429,3.429,0,0,1,1.463-.3,2.668,2.668,0,0,1,1.05.191,1.94,1.94,0,0,1,.746.547,2.394,2.394,0,0,1,.446.863,3.966,3.966,0,0,1,.15,1.129V0Zm-3-.4a3.2,3.2,0,0,0,.8-.094,2.96,2.96,0,0,0,.675-.262,3.3,3.3,0,0,0,.581-.4q.27-.232.533-.5V-3.6a13.3,13.3,0,0,0-1.834.161,5.286,5.286,0,0,0-1.268.356,1.859,1.859,0,0,0-.735.536,1.141,1.141,0,0,0-.236.709,1.564,1.564,0,0,0,.124.649,1.291,1.291,0,0,0,.326.45,1.28,1.28,0,0,0,.472.259A1.914,1.914,0,0,0,10.586-.4Zm7.14-7.065v4.77a2.55,2.55,0,0,0,.482,1.646,1.774,1.774,0,0,0,1.467.6,2.644,2.644,0,0,0,1.362-.371,3.961,3.961,0,0,0,1.136-1.031v-5.61h.712V0h-.393q-.207,0-.215-.2l-.068-1.11a4.234,4.234,0,0,1-1.2,1.035A2.986,2.986,0,0,1,19.5.12a2.8,2.8,0,0,1-1.089-.2,2,2,0,0,1-.774-.562,2.489,2.489,0,0,1-.466-.885,4.01,4.01,0,0,1-.158-1.17v-4.77ZM31.689,0a.2.2,0,0,1-.215-.2L31.4-1.373A3.957,3.957,0,0,1,30.238-.3a2.848,2.848,0,0,1-1.491.4A2.6,2.6,0,0,1,26.6-.855a4.481,4.481,0,0,1-.77-2.858,5.255,5.255,0,0,1,.214-1.526,3.622,3.622,0,0,1,.631-1.23A3,3,0,0,1,27.7-7.29a3.1,3.1,0,0,1,1.393-.3,2.877,2.877,0,0,1,1.314.281,2.752,2.752,0,0,1,.961.821v-4.425h.713V0ZM28.95-.48a2.452,2.452,0,0,0,1.345-.382,3.808,3.808,0,0,0,1.074-1.065V-5.865a2.626,2.626,0,0,0-.958-.9,2.6,2.6,0,0,0-1.183-.262,2.626,2.626,0,0,0-1.157.24,2.276,2.276,0,0,0-.83.679,3.057,3.057,0,0,0-.5,1.05,5.042,5.042,0,0,0-.169,1.346,3.954,3.954,0,0,0,.616,2.449A2.113,2.113,0,0,0,28.95-.48Zm7.639-6.983V0h-.713V-7.463Zm.315-2.573a.569.569,0,0,1-.056.251.754.754,0,0,1-.146.206.679.679,0,0,1-.21.142.629.629,0,0,1-.255.052.629.629,0,0,1-.255-.052.679.679,0,0,1-.21-.142.692.692,0,0,1-.142-.206.6.6,0,0,1-.053-.251.656.656,0,0,1,.053-.259.667.667,0,0,1,.142-.214.679.679,0,0,1,.21-.143.629.629,0,0,1,.255-.052.629.629,0,0,1,.255.052.679.679,0,0,1,.21.143.721.721,0,0,1,.146.214A.618.618,0,0,1,36.9-10.035ZM52.631,0h-.592a.26.26,0,0,1-.173-.056.373.373,0,0,1-.1-.146L50.509-3.285H45.3L44.051-.2a.322.322,0,0,1-.1.142.279.279,0,0,1-.18.06h-.585l4.343-10.613h.765Zm-7.1-3.855h4.755L48.116-9.218q-.052-.127-.1-.289t-.1-.341q-.052.18-.105.341t-.1.3ZM55.031,0V-7.463h.375a.265.265,0,0,1,.184.053.261.261,0,0,1,.064.18l.06,1.575a3.55,3.55,0,0,1,.96-1.421,2.193,2.193,0,0,1,1.478-.514,2.564,2.564,0,0,1,.623.071,2.387,2.387,0,0,1,.54.206l-.1.495a.136.136,0,0,1-.15.12.407.407,0,0,1-.127-.03q-.083-.03-.206-.068a2.464,2.464,0,0,0-.3-.068,2.531,2.531,0,0,0-.412-.03,1.92,1.92,0,0,0-1.391.525,3.752,3.752,0,0,0-.881,1.515V0ZM66.454,0a.257.257,0,0,1-.278-.21l-.1-.953a7.83,7.83,0,0,1-.611.54,3.666,3.666,0,0,1-.634.405,3.122,3.122,0,0,1-.713.251,3.821,3.821,0,0,1-.84.086,2.475,2.475,0,0,1-.743-.113,1.832,1.832,0,0,1-.638-.345,1.693,1.693,0,0,1-.446-.6,2.063,2.063,0,0,1-.169-.874,1.551,1.551,0,0,1,.27-.878,2.218,2.218,0,0,1,.844-.7,5.567,5.567,0,0,1,1.478-.48,12.85,12.85,0,0,1,2.171-.21v-.78A2.5,2.5,0,0,0,65.6-6.454a1.593,1.593,0,0,0-1.324-.559,2.5,2.5,0,0,0-.919.15,3.253,3.253,0,0,0-.641.33,4.043,4.043,0,0,0-.428.33.463.463,0,0,1-.278.15.242.242,0,0,1-.225-.135l-.127-.217a4.337,4.337,0,0,1,1.23-.885,3.429,3.429,0,0,1,1.463-.3A2.668,2.668,0,0,1,65.4-7.4a1.94,1.94,0,0,1,.746.547,2.394,2.394,0,0,1,.446.863,3.967,3.967,0,0,1,.15,1.129V0Zm-3-.4a3.2,3.2,0,0,0,.8-.094,2.96,2.96,0,0,0,.675-.262,3.3,3.3,0,0,0,.581-.4q.27-.232.533-.5V-3.6a13.3,13.3,0,0,0-1.834.161,5.286,5.286,0,0,0-1.267.356,1.859,1.859,0,0,0-.735.536,1.141,1.141,0,0,0-.236.709,1.564,1.564,0,0,0,.124.649,1.291,1.291,0,0,0,.326.45,1.28,1.28,0,0,0,.472.259A1.914,1.914,0,0,0,63.454-.4Zm6.69.4V-10.913h.713l.007,4.755A3.9,3.9,0,0,1,72.011-7.2a2.852,2.852,0,0,1,1.47-.383,2.6,2.6,0,0,1,2.141.949,4.469,4.469,0,0,1,.769,2.854,5.255,5.255,0,0,1-.214,1.526,3.623,3.623,0,0,1-.631,1.23A3,3,0,0,1,74.525-.2a3.1,3.1,0,0,1-1.393.3,2.794,2.794,0,0,1-1.344-.3,2.767,2.767,0,0,1-.969-.9l-.045.915a.185.185,0,0,1-.2.188Zm3.131-7.013a2.452,2.452,0,0,0-1.345.382,3.808,3.808,0,0,0-1.074,1.065v3.938a2.535,2.535,0,0,0,.947.9A2.64,2.64,0,0,0,73-.465a2.626,2.626,0,0,0,1.157-.24,2.276,2.276,0,0,0,.83-.679,3.057,3.057,0,0,0,.5-1.05,5.042,5.042,0,0,0,.169-1.346,3.954,3.954,0,0,0-.616-2.449A2.113,2.113,0,0,0,73.275-7.013Zm6.986-.45V0h-.712V-7.463Zm.315-2.573a.569.569,0,0,1-.056.251.754.754,0,0,1-.146.206.679.679,0,0,1-.21.142.629.629,0,0,1-.255.052.629.629,0,0,1-.255-.052.679.679,0,0,1-.21-.142.692.692,0,0,1-.143-.206.6.6,0,0,1-.052-.251.656.656,0,0,1,.052-.259.667.667,0,0,1,.143-.214.679.679,0,0,1,.21-.143.629.629,0,0,1,.255-.052.629.629,0,0,1,.255.052.679.679,0,0,1,.21.143.721.721,0,0,1,.146.214A.618.618,0,0,1,80.576-10.035ZM88.744,0a.257.257,0,0,1-.278-.21l-.1-.953a7.83,7.83,0,0,1-.611.54,3.666,3.666,0,0,1-.634.405A3.122,3.122,0,0,1,86.4.034a3.821,3.821,0,0,1-.84.086,2.475,2.475,0,0,1-.743-.113,1.832,1.832,0,0,1-.637-.345,1.693,1.693,0,0,1-.446-.6,2.063,2.063,0,0,1-.169-.874,1.551,1.551,0,0,1,.27-.878,2.218,2.218,0,0,1,.844-.7,5.567,5.567,0,0,1,1.478-.48,12.849,12.849,0,0,1,2.171-.21v-.78a2.5,2.5,0,0,0-.446-1.594,1.593,1.593,0,0,0-1.324-.559,2.5,2.5,0,0,0-.919.15,3.253,3.253,0,0,0-.641.33,4.043,4.043,0,0,0-.427.33.463.463,0,0,1-.278.15.242.242,0,0,1-.225-.135l-.128-.217a4.337,4.337,0,0,1,1.23-.885,3.429,3.429,0,0,1,1.463-.3,2.668,2.668,0,0,1,1.05.191,1.94,1.94,0,0,1,.746.547,2.394,2.394,0,0,1,.446.863,3.967,3.967,0,0,1,.15,1.129V0Zm-3-.4a3.2,3.2,0,0,0,.8-.094,2.96,2.96,0,0,0,.675-.262,3.3,3.3,0,0,0,.581-.4q.27-.232.533-.5V-3.6a13.3,13.3,0,0,0-1.834.161,5.286,5.286,0,0,0-1.267.356,1.859,1.859,0,0,0-.735.536,1.141,1.141,0,0,0-.236.709,1.565,1.565,0,0,0,.124.649,1.291,1.291,0,0,0,.326.45,1.28,1.28,0,0,0,.473.259A1.914,1.914,0,0,0,85.744-.4Z" transform="translate(-5303 -1535)" fill="#fff"/></g></svg>