<svg xmlns="http://www.w3.org/2000/svg" width="197.713" height="77.295" viewBox="0 0 197.713 77.295"><g transform="translate(5398.768 1712.911)"><path d="M35.235,0H30.56V-18.2H9.908V0H5.232V-39.911H9.908V-22.4H30.56V-39.911h4.676Zm57.3-.278a8.8,8.8,0,0,1-4.258.891q-7.487,0-7.487-8.35V-24.6h-4.9v-3.9h4.9v-6.958l4.564-1.475V-28.5h7.181v3.9H85.355V-8.544a6.657,6.657,0,0,0,.974,4.091,3.887,3.887,0,0,0,3.229,1.225,4.8,4.8,0,0,0,2.978-.946Zm4.37-.751v-4.9a13.508,13.508,0,0,0,8.21,2.755q6.012,0,6.012-4.008a3.477,3.477,0,0,0-.515-1.934,5.132,5.132,0,0,0-1.392-1.406,10.712,10.712,0,0,0-2.06-1.1q-1.183-.487-2.547-1.016a32.8,32.8,0,0,1-3.326-1.517A10.048,10.048,0,0,1,98.9-15.878a6.421,6.421,0,0,1-1.447-2.185,7.729,7.729,0,0,1-.487-2.867,6.81,6.81,0,0,1,.918-3.549,8.144,8.144,0,0,1,2.449-2.588,11.421,11.421,0,0,1,3.493-1.573,15.494,15.494,0,0,1,4.05-.529,16.351,16.351,0,0,1,6.624,1.28v4.62a12.909,12.909,0,0,0-7.236-2.06,8.458,8.458,0,0,0-2.31.292,5.655,5.655,0,0,0-1.767.821,3.793,3.793,0,0,0-1.141,1.266,3.336,3.336,0,0,0-.4,1.628,3.9,3.9,0,0,0,.4,1.865,4.105,4.105,0,0,0,1.183,1.336,9.041,9.041,0,0,0,1.893,1.058q1.113.473,2.533,1.03a35.249,35.249,0,0,1,3.4,1.489,11.646,11.646,0,0,1,2.561,1.726,6.743,6.743,0,0,1,1.628,2.213,7.136,7.136,0,0,1,.571,2.978,7.022,7.022,0,0,1-.932,3.674,7.991,7.991,0,0,1-2.491,2.588A11.409,11.409,0,0,1,108.79.167a17.727,17.727,0,0,1-4.258.5A16.17,16.17,0,0,1,96.905-1.03Zm30.587-3.089h-.111V13.109h-4.564V-28.5h4.564v5.01h.111a10.793,10.793,0,0,1,9.853-5.678,10.437,10.437,0,0,1,8.6,3.827q3.089,3.827,3.089,10.256,0,7.153-3.479,11.453a11.583,11.583,0,0,1-9.519,4.3A9.535,9.535,0,0,1,127.493-4.119Zm-.111-11.495v3.98a8.474,8.474,0,0,0,2.3,6,7.625,7.625,0,0,0,5.831,2.463,7.64,7.64,0,0,0,6.5-3.173q2.352-3.173,2.352-8.823a11.491,11.491,0,0,0-2.2-7.459,7.276,7.276,0,0,0-5.956-2.7,8.087,8.087,0,0,0-6.4,2.769A10.168,10.168,0,0,0,127.381-15.614ZM168.239.668A13.22,13.22,0,0,1,158.15-3.326q-3.771-3.994-3.771-10.59,0-7.181,3.924-11.216t10.6-4.036q6.374,0,9.95,3.924t3.576,10.882q0,6.819-3.855,10.924A13.507,13.507,0,0,1,168.239.668Zm.334-26a8.682,8.682,0,0,0-6.958,2.992q-2.561,2.992-2.561,8.252,0,5.065,2.588,7.988a8.8,8.8,0,0,0,6.93,2.922,8.344,8.344,0,0,0,6.8-2.867q2.38-2.867,2.38-8.155,0-5.344-2.38-8.238A8.308,8.308,0,0,0,168.573-25.327ZM202.945-.278a8.8,8.8,0,0,1-4.258.891q-7.487,0-7.487-8.35V-24.6h-4.9v-3.9h4.9v-6.958l4.564-1.475V-28.5h7.181v3.9h-7.181V-8.544a6.657,6.657,0,0,0,.974,4.091,3.887,3.887,0,0,0,3.229,1.225,4.8,4.8,0,0,0,2.978-.946Z" transform="translate(-5404 -1673)" fill="#fff"/><g transform="translate(-5360.82 -1701.248)"><g transform="translate(0 0)"><path d="M54.86,104.816a14.352,14.352,0,1,1-14.352,14.352A14.352,14.352,0,0,1,54.86,104.816Zm0,1.566a12.786,12.786,0,1,1-12.786,12.786A12.786,12.786,0,0,1,54.86,106.382Z" transform="translate(-40.508 -104.816)" fill="#fff" fill-rule="evenodd"/><path d="M53.9,108.933a9.276,9.276,0,1,1-9.276,9.276A9.276,9.276,0,0,1,53.9,108.933Zm0,1.383a7.893,7.893,0,1,1-7.893,7.893A7.893,7.893,0,0,1,53.9,110.316Z" transform="translate(-39.55 -103.858)" fill="#fff" fill-rule="evenodd"/><path d="M52.988,112.859a4.436,4.436,0,1,1-4.436,4.436A4.436,4.436,0,0,1,52.988,112.859Zm0,1.109a3.327,3.327,0,1,1-3.327,3.327A3.327,3.327,0,0,1,52.988,113.968Z" transform="translate(-38.636 -102.944)" fill="#fff" fill-rule="evenodd"/><rect width="17.287" height="0.913" transform="translate(13.777 14.842) rotate(-52.801)" fill="#fff"/></g><g transform="translate(4.693 0)"><path d="M53.974,104.816a14.288,14.288,0,0,1,8.577,2.844L61.6,108.9a12.786,12.786,0,0,0-16.284.858l-1-1.209A14.3,14.3,0,0,1,53.974,104.816Z" transform="translate(-44.316 -104.816)" fill="#d5a00c" fill-rule="evenodd"/><path d="M53.362,108.933a9.234,9.234,0,0,1,5.49,1.8l-.841,1.1a7.892,7.892,0,0,0-10.184.752l-.884-1.07A9.245,9.245,0,0,1,53.362,108.933Z" transform="translate(-43.704 -103.858)" fill="#d5a00c" fill-rule="evenodd"/><path d="M52.777,112.859a4.415,4.415,0,0,1,2.545.8l-.675.881a3.327,3.327,0,0,0-4.47.676l-.718-.868A4.425,4.425,0,0,1,52.777,112.859Z" transform="translate(-43.118 -102.944)" fill="#d5a00c" fill-rule="evenodd"/></g></g><path d="M-38.479-6.628h.637v4.373a4.291,4.291,0,0,0,.062.8,1.269,1.269,0,0,0,.2.509.741.741,0,0,0,.352.267,1.512,1.512,0,0,0,.513.077V.1h-.161a1.6,1.6,0,0,1-.641-.125,1.421,1.421,0,0,1-.5-.355,1.611,1.611,0,0,1-.322-.553,2.149,2.149,0,0,1-.114-.718,4.314,4.314,0,0,1-.769.249,4.151,4.151,0,0,1-.945.1,3.222,3.222,0,0,1-.9-.117,2.02,2.02,0,0,1-.688-.341A1.556,1.556,0,0,1-42.2-2.3a1.59,1.59,0,0,1-.157-.714,2.045,2.045,0,0,1,.22-.919,2.415,2.415,0,0,1,.688-.813,4.531,4.531,0,0,1,1.2-.648,8.287,8.287,0,0,1,1.765-.425ZM-41.723-3.12a1.052,1.052,0,0,0,.4.879,1.97,1.97,0,0,0,1.223.315,4.056,4.056,0,0,0,.938-.1,3.239,3.239,0,0,0,.681-.227V-5.2a7.552,7.552,0,0,0-1.428.3,4.062,4.062,0,0,0-1.011.476,2.011,2.011,0,0,0-.6.608A1.32,1.32,0,0,0-41.723-3.12Zm1.868-5.339h-.806v-.769h.806Zm1.45,0h-.806v-.769h.806Zm5.592,3.384v2.651a3.7,3.7,0,0,1-.161,1.165,2.013,2.013,0,0,1-.454.784,1.748,1.748,0,0,1-.71.439A2.9,2.9,0,0,1-35.062.1h-.571a.665.665,0,0,1-.381-.092.3.3,0,0,1-.132-.26.3.3,0,0,1,.132-.26A.665.665,0,0,1-35.634-.6h.564a2.463,2.463,0,0,0,.725-.1A1.185,1.185,0,0,0-33.832-1a1.3,1.3,0,0,0,.3-.553,2.986,2.986,0,0,0,.1-.824v-2.7ZM-33.7,2.249h-.806V1.479h.806Zm1.45,0h-.806V1.479h.806ZM-30.042-.7q.256.037.557.066t.6.051q.3.022.593.033t.524.011a5.2,5.2,0,0,0,1.011-.084,1.862,1.862,0,0,0,.677-.26,1.012,1.012,0,0,0,.377-.458,1.762,1.762,0,0,0,.117-.677,3.445,3.445,0,0,0-.128-.894,5.536,5.536,0,0,0-.4-1.025,10.911,10.911,0,0,0-.7-1.183q-.425-.634-1.018-1.373h.754A14.392,14.392,0,0,1-26.1-5.16a9.772,9.772,0,0,1,.652,1.179,5.559,5.559,0,0,1,.366,1.04,4.056,4.056,0,0,1,.114.919,1.948,1.948,0,0,1-.692,1.655A3.33,3.33,0,0,1-27.7.161q-.432,0-.992-.044T-29.771,0Zm7.284,3.1a3.306,3.306,0,0,0,.421.117q.238.051.505.092t.557.059q.289.018.575.018a4.342,4.342,0,0,0,.952-.092,1.957,1.957,0,0,0,.692-.293,1.638,1.638,0,0,0,.48-.527,3.383,3.383,0,0,0,.322-.8q.037-.139.077-.363t.07-.5h-1.267a3.066,3.066,0,0,1-1.1-.179,2.313,2.313,0,0,1-.78-.476,1.958,1.958,0,0,1-.469-.681,2.1,2.1,0,0,1-.157-.8,2.441,2.441,0,0,1,.172-.89,2.884,2.884,0,0,1,.461-.795,2.447,2.447,0,0,1,.67-.571,1.575,1.575,0,0,1,.8-.22,1.492,1.492,0,0,1,1,.359,3.276,3.276,0,0,1,.743.959,3.867,3.867,0,0,1,.253.6,6,6,0,0,1,.176.67,6.724,6.724,0,0,1,.1.685q.033.341.04.634h.908V.1h-.923a5.643,5.643,0,0,1-.293,1.5A2.718,2.718,0,0,1-18.4,2.622a2.392,2.392,0,0,1-.97.579,4.376,4.376,0,0,1-1.333.183,7.055,7.055,0,0,1-1.154-.092,4.165,4.165,0,0,1-.9-.238Zm4.351-4.761a3.954,3.954,0,0,0-.267-.579A2.364,2.364,0,0,0-19-3.4a1.538,1.538,0,0,0-.381-.3.854.854,0,0,0-.414-.11,1.065,1.065,0,0,0-.527.139,1.519,1.519,0,0,0-.439.374,1.877,1.877,0,0,0-.3.546,1.877,1.877,0,0,0-.114.648,1.446,1.446,0,0,0,.128.619,1.333,1.333,0,0,0,.37.472,1.709,1.709,0,0,0,.586.3,2.658,2.658,0,0,0,.784.106h1.2q0-.176-.015-.392t-.051-.45q-.037-.234-.092-.472A3.467,3.467,0,0,0-18.408-2.366Zm4.061-2.256a17.3,17.3,0,0,1,1.791-.337,12.89,12.89,0,0,1,1.7-.117,3.146,3.146,0,0,1,1.619.33,1,1,0,0,1,.535.879,1.911,1.911,0,0,1-.128.641,3.657,3.657,0,0,1-.377.74,5.46,5.46,0,0,1-.615.773,5.928,5.928,0,0,1-.842.732,2.368,2.368,0,0,0,.465.15,6.978,6.978,0,0,0,.7.121q.4.051.886.081T-7.579-.6V.1h-.564A8.2,8.2,0,0,1-9.831-.066a5.482,5.482,0,0,1-1.461-.52,6.438,6.438,0,0,1-.751.3,6.588,6.588,0,0,1-.813.212,8.963,8.963,0,0,1-.9.128Q-14.237.1-14.786.1h-.688q-.513,0-.513-.359a.291.291,0,0,1,.132-.253A.665.665,0,0,1-15.475-.6h.564A8.224,8.224,0,0,0-11.952-1a5.7,5.7,0,0,1-.608-.568q-.344-.363-.681-.791t-.634-.868a6.47,6.47,0,0,1-.472-.806Zm3.054,3.34a3.922,3.922,0,0,0,.725-.538,5.85,5.85,0,0,0,.63-.681,4.047,4.047,0,0,0,.447-.7,1.375,1.375,0,0,0,.168-.59q0-.3-.381-.465a3.021,3.021,0,0,0-1.143-.165,12.754,12.754,0,0,0-1.487.084q-.718.084-1.333.216v.081q.205.359.476.743t.582.751q.311.366.648.692A6.454,6.454,0,0,0-11.293-1.282Zm7.613-2.666v1.6a1.821,1.821,0,0,0,.421,1.322A1.709,1.709,0,0,0-1.988-.6a2.077,2.077,0,0,0,.674-.1A1.346,1.346,0,0,0-.8-1.018a1.4,1.4,0,0,0,.333-.546,2.4,2.4,0,0,0,.117-.795V-3.948H.268v1.582A1.746,1.746,0,0,0,.726-1.018,1.908,1.908,0,0,0,2.055-.6a1.516,1.516,0,0,0,1.179-.406A1.9,1.9,0,0,0,3.6-2.3V-4.512h.615v2.549A1.246,1.246,0,0,0,4.623-.919,2.085,2.085,0,0,0,5.908-.6V.1H5.681A2.326,2.326,0,0,1,4.557-.146a1.421,1.421,0,0,1-.648-.681H3.865a1.8,1.8,0,0,1-.743.7A2.388,2.388,0,0,1,2.033.1,2.506,2.506,0,0,1,.711-.2a2,2,0,0,1-.751-.809H-.069A2.234,2.234,0,0,1-.83-.179,2.161,2.161,0,0,1-1.988.1,3.422,3.422,0,0,1-2.636.044,2.314,2.314,0,0,1-3.2-.139a1.611,1.611,0,0,1-.458-.326A1.6,1.6,0,0,1-3.98-.952h-.029a1.707,1.707,0,0,1-.681.8A2.1,2.1,0,0,1-5.767.1H-6.5q-.513,0-.513-.359A.291.291,0,0,1-6.88-.509.665.665,0,0,1-6.5-.6h.557A1.755,1.755,0,0,0-4.708-.985a1.727,1.727,0,0,0,.414-1.307V-3.948ZM7.545-.6a3.231,3.231,0,0,0,.78-.081,1.092,1.092,0,0,0,.509-.267,1.072,1.072,0,0,0,.275-.494A2.9,2.9,0,0,0,9.193-2.2V-11.1h.615v9a3.356,3.356,0,0,1-.132,1,1.6,1.6,0,0,1-.41.685,1.675,1.675,0,0,1-.7.392A3.619,3.619,0,0,1,7.552.1H6.988A.967.967,0,0,1,6.6.044q-.128-.059-.128-.293T6.6-.542A.967.967,0,0,1,6.988-.6Zm5.6-10.5h.615V0h-.615Zm10.006,0v8.8a.015.015,0,0,1,.011,0,.015.015,0,0,0,.011,0,8.322,8.322,0,0,1,.872-1.077A6.132,6.132,0,0,1,25.1-4.259a5.238,5.238,0,0,1,1.227-.6,4.362,4.362,0,0,1,1.4-.22,3.314,3.314,0,0,1,1.146.194,2.607,2.607,0,0,1,.916.56,2.578,2.578,0,0,1,.6.9,3.2,3.2,0,0,1,.22,1.223,3.8,3.8,0,0,0,.066.776,1.265,1.265,0,0,0,.2.491.713.713,0,0,0,.348.256,1.581,1.581,0,0,0,.513.073V.1h-.088A1.387,1.387,0,0,1,30.8-.154a1.385,1.385,0,0,1-.494-.681h-.044a2,2,0,0,1-.454.432,2.329,2.329,0,0,1-.612.289,4.244,4.244,0,0,1-.835.165A10.9,10.9,0,0,1,27.222.1Q26.116.1,25.27.1L23.78.092q-.645,0-1.124-.015L21.791.055q-.385-.011-.7-.026L20.455,0,20.22-.762q.161.022.392.037l.487.033q.256.018.527.029l.52.018q.081-.161.187-.359l.2-.374V-11.1ZM27.669-.6a6.375,6.375,0,0,0,1.106-.081,1.876,1.876,0,0,0,.714-.26,1.01,1.01,0,0,0,.385-.472,1.938,1.938,0,0,0,.117-.718,2.57,2.57,0,0,0-.168-.967,1.916,1.916,0,0,0-.472-.7,2.033,2.033,0,0,0-.725-.428,2.828,2.828,0,0,0-.934-.146,4.177,4.177,0,0,0-1.425.249,4.774,4.774,0,0,0-1.315.732A6.463,6.463,0,0,0,23.791-2.2a8.52,8.52,0,0,0-.956,1.6Zm7.965-4.475v2.651a3.7,3.7,0,0,1-.161,1.165,2.013,2.013,0,0,1-.454.784,1.748,1.748,0,0,1-.71.439A2.9,2.9,0,0,1,33.385.1h-.571a.665.665,0,0,1-.381-.092.3.3,0,0,1-.132-.26.3.3,0,0,1,.132-.26A.665.665,0,0,1,32.814-.6h.564A2.463,2.463,0,0,0,34.1-.7,1.185,1.185,0,0,0,34.616-1a1.3,1.3,0,0,0,.3-.553,2.986,2.986,0,0,0,.1-.824v-2.7Zm0,7.324h-.806V1.479h.806Zm2.208.146a5.45,5.45,0,0,0,.765.209,4.117,4.117,0,0,0,.795.077,2.8,2.8,0,0,0,.97-.157A1.654,1.654,0,0,0,41.1,2a2.544,2.544,0,0,0,.454-.963,5.848,5.848,0,0,0,.157-1.469,9.01,9.01,0,0,0-.242-2,12.334,12.334,0,0,0-.674-2.076h.732q.19.476.344,1t.26,1.047q.106.527.165,1.047a8.846,8.846,0,0,1,.059.989,6.426,6.426,0,0,1-.205,1.74A3.286,3.286,0,0,1,41.57,2.49a2.249,2.249,0,0,1-.894.677,2.949,2.949,0,0,1-1.143.216,4.405,4.405,0,0,1-.9-.092,4.38,4.38,0,0,1-.791-.238Z" transform="translate(-5303 -1639)" fill="#fff"/></g></svg>